{
	"asset":{
		"generator":"Khronos glTF Blender I/O v4.5.47",
		"version":"2.0"
	},
	"scene":0,
	"scenes":[
		{
			"name":"Scene",
			"nodes":[
				0,
				1,
				2,
				3,
				4
			]
		}
	],
	"nodes":[
		{
			"mesh":0,
			"name":"seat"
		},
		{
			"mesh":1,
			"name":"base"
		},
		{
			"mesh":2,
			"name":"backrest"
		},
		{
			"mesh":3,
			"name":"feet"
		},
		{
			"mesh":4,
			"name":"pillow"
		}
	],
	"materials":[
		{
			"doubleSided":true,
			"name":"Material.001",
			"pbrMetallicRoughness":{
				"baseColorTexture":{
					"index":0
				},
				"metallicFactor":0,
				"roughnessFactor":0.5
			}
		},
		{
			"doubleSided":true,
			"name":"Material.002",
			"pbrMetallicRoughness":{
				"baseColorTexture":{
					"index":1
				},
				"metallicFactor":0,
				"roughnessFactor":0.5
			}
		},
		{
			"doubleSided":true,
			"name":"Material.003",
			"pbrMetallicRoughness":{
				"baseColorTexture":{
					"index":2
				},
				"metallicFactor":0,
				"roughnessFactor":0.5
			}
		}
	],
	"meshes":[
		{
			"name":"Mesh.009",
			"primitives":[
				{
					"attributes":{
						"POSITION":0,
						"NORMAL":1,
						"TEXCOORD_0":2
					},
					"indices":3,
					"material":0
				}
			]
		},
		{
			"name":"Mesh.008",
			"primitives":[
				{
					"attributes":{
						"POSITION":4,
						"NORMAL":5,
						"TEXCOORD_0":6
					},
					"indices":7,
					"material":0
				}
			]
		},
		{
			"name":"Mesh.007",
			"primitives":[
				{
					"attributes":{
						"POSITION":8,
						"NORMAL":9,
						"TEXCOORD_0":10
					},
					"indices":11,
					"material":0
				}
			]
		},
		{
			"name":"Mesh.006",
			"primitives":[
				{
					"attributes":{
						"POSITION":12,
						"NORMAL":13,
						"TEXCOORD_0":14
					},
					"indices":15,
					"material":1
				}
			]
		},
		{
			"name":"Mesh.005",
			"primitives":[
				{
					"attributes":{
						"POSITION":16,
						"NORMAL":17,
						"TEXCOORD_0":18
					},
					"indices":19,
					"material":2
				}
			]
		}
	],
	"textures":[
		{
			"sampler":0,
			"source":0
		},
		{
			"sampler":0,
			"source":1
		},
		{
			"sampler":0,
			"source":2
		}
	],
	"images":[
		{
			"mimeType":"image/jpeg",
			"name":"texture01",
			"uri":"texture01.jpg"
		},
		{
			"mimeType":"image/jpeg",
			"name":"metal_metal",
			"uri":"metal_metal.jpg"
		},
		{
			"mimeType":"image/jpeg",
			"name":"texture02",
			"uri":"texture02.jpg"
		}
	],
	"accessors":[
		{
			"bufferView":0,
			"componentType":5126,
			"count":4181,
			"max":[
				0.3800068795681,
				0.4380846619606018,
				0.41732415556907654
			],
			"min":[
				-0.37965497374534607,
				0.16680265963077545,
				-0.3488333225250244
			],
			"type":"VEC3"
		},
		{
			"bufferView":1,
			"componentType":5126,
			"count":4181,
			"type":"VEC3"
		},
		{
			"bufferView":2,
			"componentType":5126,
			"count":4181,
			"type":"VEC2"
		},
		{
			"bufferView":3,
			"componentType":5123,
			"count":14592,
			"type":"SCALAR"
		},
		{
			"bufferView":4,
			"componentType":5126,
			"count":1419,
			"max":[
				0.3580629527568817,
				0.17123407125473022,
				0.3994569182395935
			],
			"min":[
				-0.35771146416664124,
				0.13706594705581665,
				-0.33831146359443665
			],
			"type":"VEC3"
		},
		{
			"bufferView":5,
			"componentType":5126,
			"count":1419,
			"type":"VEC3"
		},
		{
			"bufferView":6,
			"componentType":5126,
			"count":1419,
			"type":"VEC2"
		},
		{
			"bufferView":7,
			"componentType":5123,
			"count":7680,
			"type":"SCALAR"
		},
		{
			"bufferView":8,
			"componentType":5126,
			"count":11899,
			"max":[
				0.40541037917137146,
				0.7110524773597717,
				0.12571489810943604
			],
			"min":[
				-0.3988272547721863,
				0.1660008281469345,
				-0.4001260995864868
			],
			"type":"VEC3"
		},
		{
			"bufferView":9,
			"componentType":5126,
			"count":11899,
			"type":"VEC3"
		},
		{
			"bufferView":10,
			"componentType":5126,
			"count":11899,
			"type":"VEC2"
		},
		{
			"bufferView":11,
			"componentType":5123,
			"count":34464,
			"type":"SCALAR"
		},
		{
			"bufferView":12,
			"componentType":5126,
			"count":6538,
			"max":[
				0.2767939865589142,
				0.3842940926551819,
				0.28821876645088196
			],
			"min":[
				-0.2767940163612366,
				0,
				-0.28821876645088196
			],
			"type":"VEC3"
		},
		{
			"bufferView":13,
			"componentType":5126,
			"count":6538,
			"type":"VEC3"
		},
		{
			"bufferView":14,
			"componentType":5126,
			"count":6538,
			"type":"VEC2"
		},
		{
			"bufferView":15,
			"componentType":5123,
			"count":11232,
			"type":"SCALAR"
		},
		{
			"bufferView":16,
			"componentType":5126,
			"count":23330,
			"max":[
				0.26273584365844727,
				0.733418345451355,
				-0.025611236691474915
			],
			"min":[
				-0.22993117570877075,
				0.41922080516815186,
				-0.23953542113304138
			],
			"type":"VEC3"
		},
		{
			"bufferView":17,
			"componentType":5126,
			"count":23330,
			"type":"VEC3"
		},
		{
			"bufferView":18,
			"componentType":5126,
			"count":23330,
			"type":"VEC2"
		},
		{
			"bufferView":19,
			"componentType":5123,
			"count":137760,
			"type":"SCALAR"
		}
	],
	"bufferViews":[
		{
			"buffer":0,
			"byteLength":50172,
			"byteOffset":0,
			"target":34962
		},
		{
			"buffer":0,
			"byteLength":50172,
			"byteOffset":50172,
			"target":34962
		},
		{
			"buffer":0,
			"byteLength":33448,
			"byteOffset":100344,
			"target":34962
		},
		{
			"buffer":0,
			"byteLength":29184,
			"byteOffset":133792,
			"target":34963
		},
		{
			"buffer":0,
			"byteLength":17028,
			"byteOffset":162976,
			"target":34962
		},
		{
			"buffer":0,
			"byteLength":17028,
			"byteOffset":180004,
			"target":34962
		},
		{
			"buffer":0,
			"byteLength":11352,
			"byteOffset":197032,
			"target":34962
		},
		{
			"buffer":0,
			"byteLength":15360,
			"byteOffset":208384,
			"target":34963
		},
		{
			"buffer":0,
			"byteLength":142788,
			"byteOffset":223744,
			"target":34962
		},
		{
			"buffer":0,
			"byteLength":142788,
			"byteOffset":366532,
			"target":34962
		},
		{
			"buffer":0,
			"byteLength":95192,
			"byteOffset":509320,
			"target":34962
		},
		{
			"buffer":0,
			"byteLength":68928,
			"byteOffset":604512,
			"target":34963
		},
		{
			"buffer":0,
			"byteLength":78456,
			"byteOffset":673440,
			"target":34962
		},
		{
			"buffer":0,
			"byteLength":78456,
			"byteOffset":751896,
			"target":34962
		},
		{
			"buffer":0,
			"byteLength":52304,
			"byteOffset":830352,
			"target":34962
		},
		{
			"buffer":0,
			"byteLength":22464,
			"byteOffset":882656,
			"target":34963
		},
		{
			"buffer":0,
			"byteLength":279960,
			"byteOffset":905120,
			"target":34962
		},
		{
			"buffer":0,
			"byteLength":279960,
			"byteOffset":1185080,
			"target":34962
		},
		{
			"buffer":0,
			"byteLength":186640,
			"byteOffset":1465040,
			"target":34962
		},
		{
			"buffer":0,
			"byteLength":275520,
			"byteOffset":1651680,
			"target":34963
		}
	],
	"samplers":[
		{
			"magFilter":9729,
			"minFilter":9987
		}
	],
	"buffers":[
		{
			"byteLength":1927200,
			"uri":"TEST_pieces.bin"
		}
	]
}
