{
	"asset":{
		"generator":"Khronos glTF Blender I/O v5.0.21",
		"version":"2.0"
	},
	"extensionsUsed":[
		"KHR_materials_specular",
		"KHR_materials_sheen"
	],
	"scene":0,
	"scenes":[
		{
			"name":"Scene",
			"nodes":[
				0,
				1
			]
		}
	],
	"nodes":[
		{
			"mesh":0,
			"name":"Jump_Pouf_feet",
			"rotation":[
				0.9238795638084412,
				0,
				0.3826834559440613,
				4.038405876372053e-08
			],
			"scale":[
				-0.02539999783039093,
				-0.02539999969303608,
				-0.02539999783039093
			],
			"translation":[
				-0.0034132003784179688,
				0.0203980952501297,
				-0.0024283528327941895
			]
		},
		{
			"mesh":1,
			"name":"Jump_pouf_seat",
			"rotation":[
				0,
				0,
				1,
				4.371138828673793e-08
			],
			"scale":[
				-0.02539999969303608,
				-0.02539999969303608,
				-0.02539999969303608
			],
			"translation":[
				-0.0043201446533203125,
				0.21660703420639038,
				0.005154788494110107
			]
		}
	],
	"materials":[
		{
			"doubleSided":true,
			"extensions":{
				"KHR_materials_specular":{
					"specularColorFactor":[
						0.0,
						0.0,
						0.0
					]
				}
			},
			"name":"Plastic",
			"pbrMetallicRoughness":{
				"baseColorFactor":[
					0.013522119261324406,
					0.013522119261324406,
					0.013522119261324406,
					1
				],
				"metallicFactor":0,
				"roughnessFactor":0.8784530162811279
			}
		},
		{
			"doubleSided":true,
			"extensions":{
				"KHR_materials_specular":{
					"specularColorFactor":[
						0.0,
						0.0,
						0.0
					]
				},
				"KHR_materials_sheen":{
					"sheenColorFactor":[
						1.0,
						1.0,
						1.0
					],
					"sheenRoughnessFactor":0.4475138187408447
				}
			},
			"name":"01 - Default",
			"pbrMetallicRoughness":{
				"baseColorTexture":{
					"index":0
				},
				"metallicFactor":0
			}
		}
	],
	"meshes":[
		{
			"name":"Mesh.043",
			"primitives":[
				{
					"attributes":{
						"POSITION":0,
						"NORMAL":1,
						"TEXCOORD_0":2
					},
					"indices":3,
					"material":0
				}
			]
		},
		{
			"name":"Mesh.042",
			"primitives":[
				{
					"attributes":{
						"POSITION":4,
						"NORMAL":5,
						"TEXCOORD_0":6
					},
					"indices":7,
					"material":1
				}
			]
		}
	],
	"textures":[
		{
			"sampler":0,
			"source":0
		}
	],
	"images":[
		{
			"mimeType":"image/jpeg",
			"name":"cat. B n.349 PINKY_23c_tx.jpg.001",
			"uri":"../ULPHOSTERY/PINKY_FABRIC/cat.%20B%20n.349%20PINKY_23c_tx.jpg"
		}
	],
	"accessors":[
		{
			"bufferView":0,
			"componentType":5126,
			"count":6028,
			"max":[
				14.563180923461914,
				0.7889895439147949,
				14.569000244140625
			],
			"min":[
				-14.573980331420898,
				-0.785815954208374,
				-14.568161010742188
			],
			"type":"VEC3"
		},
		{
			"bufferView":1,
			"componentType":5126,
			"count":6028,
			"type":"VEC3"
		},
		{
			"bufferView":2,
			"componentType":5126,
			"count":6028,
			"type":"VEC2"
		},
		{
			"bufferView":3,
			"componentType":5123,
			"count":33792,
			"type":"SCALAR"
		},
		{
			"bufferView":4,
			"componentType":5126,
			"count":5268,
			"max":[
				16.71373176574707,
				8.693033218383789,
				12.711475372314453
			],
			"min":[
				-16.91609001159668,
				-7.540791034698486,
				-12.710831642150879
			],
			"type":"VEC3"
		},
		{
			"bufferView":5,
			"componentType":5126,
			"count":5268,
			"type":"VEC3"
		},
		{
			"bufferView":6,
			"componentType":5126,
			"count":5268,
			"type":"VEC2"
		},
		{
			"bufferView":7,
			"componentType":5123,
			"count":29952,
			"type":"SCALAR"
		}
	],
	"bufferViews":[
		{
			"buffer":0,
			"byteLength":72336,
			"byteOffset":0,
			"target":34962
		},
		{
			"buffer":0,
			"byteLength":72336,
			"byteOffset":72336,
			"target":34962
		},
		{
			"buffer":0,
			"byteLength":48224,
			"byteOffset":144672,
			"target":34962
		},
		{
			"buffer":0,
			"byteLength":67584,
			"byteOffset":192896,
			"target":34963
		},
		{
			"buffer":0,
			"byteLength":63216,
			"byteOffset":260480,
			"target":34962
		},
		{
			"buffer":0,
			"byteLength":63216,
			"byteOffset":323696,
			"target":34962
		},
		{
			"buffer":0,
			"byteLength":42144,
			"byteOffset":386912,
			"target":34962
		},
		{
			"buffer":0,
			"byteLength":59904,
			"byteOffset":429056,
			"target":34963
		}
	],
	"samplers":[
		{
			"magFilter":9729,
			"minFilter":9987
		}
	],
	"buffers":[
		{
			"byteLength":488960,
			"uri":"Jump_Pouf.bin"
		}
	]
}
