{
	"asset":{
		"generator":"Khronos glTF Blender I/O v5.0.21",
		"version":"2.0"
	},
	"extensionsUsed":[
		"KHR_materials_specular",
		"KHR_materials_sheen"
	],
	"scene":0,
	"scenes":[
		{
			"name":"Scene",
			"nodes":[
				0,
				1,
				2,
				3
			]
		}
	],
	"nodes":[
		{
			"mesh":0,
			"name":"Jump_Left_seat",
			"rotation":[
				1,
				0,
				0,
				4.371138828673793e-08
			],
			"scale":[
				-0.02539999969303608,
				-0.02539999969303608,
				-0.02539999969303608
			],
			"translation":[
				0.12922096252441406,
				0.22934962809085846,
				0.16076421737670898
			]
		},
		{
			"mesh":1,
			"name":"Jump_Left_back",
			"rotation":[
				1,
				0,
				0,
				4.371138828673793e-08
			],
			"scale":[
				-0.02580838091671467,
				-0.02539999969303608,
				-0.02539999969303608
			],
			"translation":[
				0.11675834655761719,
				0.5073974132537842,
				-0.2617645263671875
			]
		},
		{
			"mesh":2,
			"name":"Jump_Left_feet",
			"rotation":[
				1,
				0,
				0,
				4.371138828673793e-08
			],
			"scale":[
				-0.02539999969303608,
				-0.02539999969303608,
				-0.02539999969303608
			],
			"translation":[
				0.10225677490234375,
				0.02039811760187149,
				0.05766630172729492
			]
		},
		{
			"mesh":3,
			"name":"Jump_Left_armrest",
			"rotation":[
				0,
				-1,
				0,
				4.371138828673793e-08
			],
			"scale":[
				0.02539999969303608,
				0.02539999969303608,
				0.02539999969303608
			],
			"translation":[
				-0.35121917724609375,
				0.3621922731399536,
				0.07018184661865234
			]
		}
	],
	"materials":[
		{
			"doubleSided":true,
			"extensions":{
				"KHR_materials_specular":{
					"specularColorFactor":[
						0.0,
						0.0,
						0.0
					]
				},
				"KHR_materials_sheen":{
					"sheenColorFactor":[
						1.0,
						1.0,
						1.0
					],
					"sheenRoughnessFactor":0.4475138187408447
				}
			},
			"name":"01 - Default",
			"pbrMetallicRoughness":{
				"baseColorTexture":{
					"index":0
				},
				"metallicFactor":0
			}
		},
		{
			"doubleSided":true,
			"extensions":{
				"KHR_materials_specular":{
					"specularColorFactor":[
						0.0,
						0.0,
						0.0
					]
				}
			},
			"name":"Plastic",
			"pbrMetallicRoughness":{
				"baseColorFactor":[
					0.013522119261324406,
					0.013522119261324406,
					0.013522119261324406,
					1
				],
				"metallicFactor":0,
				"roughnessFactor":0.8784530162811279
			}
		}
	],
	"meshes":[
		{
			"name":"Mesh.061",
			"primitives":[
				{
					"attributes":{
						"POSITION":0,
						"NORMAL":1,
						"TEXCOORD_0":2
					},
					"indices":3,
					"material":0
				}
			]
		},
		{
			"name":"Mesh.067",
			"primitives":[
				{
					"attributes":{
						"POSITION":4,
						"NORMAL":5,
						"TEXCOORD_0":6
					},
					"indices":7,
					"material":0
				}
			]
		},
		{
			"name":"Mesh.064",
			"primitives":[
				{
					"attributes":{
						"POSITION":8,
						"NORMAL":9,
						"TEXCOORD_0":10
					},
					"indices":11,
					"material":1
				}
			]
		},
		{
			"name":"Mesh.062",
			"primitives":[
				{
					"attributes":{
						"POSITION":12,
						"NORMAL":13,
						"TEXCOORD_0":14
					},
					"indices":15,
					"material":0
				}
			]
		}
	],
	"textures":[
		{
			"sampler":0,
			"source":0
		}
	],
	"images":[
		{
			"mimeType":"image/jpeg",
			"name":"cat. B n.349 PINKY_23c_tx.jpg.001",
			"uri":"../ULPHOSTERY/PINKY_FABRIC/cat.%20B%20n.349%20PINKY_23c_tx.jpg"
		}
	],
	"accessors":[
		{
			"bufferView":0,
			"componentType":5126,
			"count":5264,
			"max":[
				15.559467315673828,
				8.060105323791504,
				16.138439178466797
			],
			"min":[
				-15.559467315673828,
				-8.06010627746582,
				-16.138439178466797
			],
			"type":"VEC3"
		},
		{
			"bufferView":1,
			"componentType":5126,
			"count":5264,
			"type":"VEC3"
		},
		{
			"bufferView":2,
			"componentType":5126,
			"count":5264,
			"type":"VEC2"
		},
		{
			"bufferView":3,
			"componentType":5123,
			"count":29952,
			"type":"SCALAR"
		},
		{
			"bufferView":4,
			"componentType":5126,
			"count":7145,
			"max":[
				15.329177856445312,
				19.990610122680664,
				9.048601150512695
			],
			"min":[
				-15.593355178833008,
				-18.852968215942383,
				-6.760358810424805
			],
			"type":"VEC3"
		},
		{
			"bufferView":5,
			"componentType":5126,
			"count":7145,
			"type":"VEC3"
		},
		{
			"bufferView":6,
			"componentType":5126,
			"count":7145,
			"type":"VEC2"
		},
		{
			"bufferView":7,
			"componentType":5123,
			"count":40380,
			"type":"SCALAR"
		},
		{
			"bufferView":8,
			"componentType":5126,
			"count":6028,
			"max":[
				12.062095642089844,
				0.7889889478683472,
				15.875943183898926
			],
			"min":[
				-12.072914123535156,
				-0.78581702709198,
				-15.87512493133545
			],
			"type":"VEC3"
		},
		{
			"bufferView":9,
			"componentType":5126,
			"count":6028,
			"type":"VEC3"
		},
		{
			"bufferView":10,
			"componentType":5126,
			"count":6028,
			"type":"VEC2"
		},
		{
			"bufferView":11,
			"componentType":5123,
			"count":33792,
			"type":"SCALAR"
		},
		{
			"bufferView":12,
			"componentType":5126,
			"count":26337,
			"max":[
				5.628365993499756,
				13.526582717895508,
				18.439311981201172
			],
			"min":[
				-5.6283674240112305,
				-13.526582717895508,
				-18.439311981201172
			],
			"type":"VEC3"
		},
		{
			"bufferView":13,
			"componentType":5126,
			"count":26337,
			"type":"VEC3"
		},
		{
			"bufferView":14,
			"componentType":5126,
			"count":26337,
			"type":"VEC2"
		},
		{
			"bufferView":15,
			"componentType":5123,
			"count":153312,
			"type":"SCALAR"
		}
	],
	"bufferViews":[
		{
			"buffer":0,
			"byteLength":63168,
			"byteOffset":0,
			"target":34962
		},
		{
			"buffer":0,
			"byteLength":63168,
			"byteOffset":63168,
			"target":34962
		},
		{
			"buffer":0,
			"byteLength":42112,
			"byteOffset":126336,
			"target":34962
		},
		{
			"buffer":0,
			"byteLength":59904,
			"byteOffset":168448,
			"target":34963
		},
		{
			"buffer":0,
			"byteLength":85740,
			"byteOffset":228352,
			"target":34962
		},
		{
			"buffer":0,
			"byteLength":85740,
			"byteOffset":314092,
			"target":34962
		},
		{
			"buffer":0,
			"byteLength":57160,
			"byteOffset":399832,
			"target":34962
		},
		{
			"buffer":0,
			"byteLength":80760,
			"byteOffset":456992,
			"target":34963
		},
		{
			"buffer":0,
			"byteLength":72336,
			"byteOffset":537752,
			"target":34962
		},
		{
			"buffer":0,
			"byteLength":72336,
			"byteOffset":610088,
			"target":34962
		},
		{
			"buffer":0,
			"byteLength":48224,
			"byteOffset":682424,
			"target":34962
		},
		{
			"buffer":0,
			"byteLength":67584,
			"byteOffset":730648,
			"target":34963
		},
		{
			"buffer":0,
			"byteLength":316044,
			"byteOffset":798232,
			"target":34962
		},
		{
			"buffer":0,
			"byteLength":316044,
			"byteOffset":1114276,
			"target":34962
		},
		{
			"buffer":0,
			"byteLength":210696,
			"byteOffset":1430320,
			"target":34962
		},
		{
			"buffer":0,
			"byteLength":306624,
			"byteOffset":1641016,
			"target":34963
		}
	],
	"samplers":[
		{
			"magFilter":9729,
			"minFilter":9987
		}
	],
	"buffers":[
		{
			"byteLength":1947640,
			"uri":"Jump_Left.bin"
		}
	]
}
