{
	"asset":{
		"generator":"Khronos glTF Blender I/O v5.0.21",
		"version":"2.0"
	},
	"extensionsUsed":[
		"KHR_materials_specular",
		"KHR_materials_sheen"
	],
	"scene":0,
	"scenes":[
		{
			"name":"Scene",
			"nodes":[
				0,
				1,
				2,
				3
			]
		}
	],
	"nodes":[
		{
			"mesh":0,
			"name":"Jump_Angle_seat",
			"rotation":[
				-0.7071068286895752,
				0,
				-0.7071067094802856,
				3.0908619663705394e-08
			],
			"scale":[
				-0.02539999969303608,
				-0.02539999969303608,
				-0.02539999969303608
			],
			"translation":[
				-0.12651634216308594,
				0.22758236527442932,
				0.16578006744384766
			]
		},
		{
			"mesh":1,
			"name":"Jump_Angle_feet",
			"scale":[
				0.02539999969303608,
				0.02539999969303608,
				0.02539999969303608
			],
			"translation":[
				0.019410133361816406,
				0.020398147404193878,
				0.03386354446411133
			]
		},
		{
			"mesh":2,
			"name":"Jump_Angle_back1",
			"rotation":[
				0,
				-0.7071067094802856,
				0,
				0.7071068286895752
			],
			"scale":[
				0.02580838091671467,
				0.02539999969303608,
				0.02539999969303608
			],
			"translation":[
				0.26503658294677734,
				0.5218454003334045,
				0.16203737258911133
			]
		},
		{
			"mesh":3,
			"name":"Jump_Angle_back2",
			"scale":[
				0.02580838091671467,
				0.02539999969303608,
				0.02539999969303608
			],
			"translation":[
				-0.12296009063720703,
				0.5218454599380493,
				-0.22721290588378906
			]
		}
	],
	"materials":[
		{
			"doubleSided":true,
			"extensions":{
				"KHR_materials_specular":{
					"specularColorFactor":[
						0.0,
						0.0,
						0.0
					]
				},
				"KHR_materials_sheen":{
					"sheenColorFactor":[
						1.0,
						1.0,
						1.0
					],
					"sheenRoughnessFactor":0.4475138187408447
				}
			},
			"name":"01 - Default",
			"pbrMetallicRoughness":{
				"baseColorTexture":{
					"index":0
				},
				"metallicFactor":0
			}
		},
		{
			"doubleSided":true,
			"extensions":{
				"KHR_materials_specular":{
					"specularColorFactor":[
						0.0,
						0.0,
						0.0
					]
				}
			},
			"name":"Plastic",
			"pbrMetallicRoughness":{
				"baseColorFactor":[
					0.013522119261324406,
					0.013522119261324406,
					0.013522119261324406,
					1
				],
				"metallicFactor":0,
				"roughnessFactor":0.8784530162811279
			}
		}
	],
	"meshes":[
		{
			"name":"Mesh.019",
			"primitives":[
				{
					"attributes":{
						"POSITION":0,
						"NORMAL":1,
						"TEXCOORD_0":2
					},
					"indices":3,
					"material":0
				}
			]
		},
		{
			"name":"Mesh.014",
			"primitives":[
				{
					"attributes":{
						"POSITION":4,
						"NORMAL":5,
						"TEXCOORD_0":6
					},
					"indices":7,
					"material":1
				}
			]
		},
		{
			"name":"Mesh.018",
			"primitives":[
				{
					"attributes":{
						"POSITION":8,
						"NORMAL":9,
						"TEXCOORD_0":10
					},
					"indices":11,
					"material":0
				}
			]
		},
		{
			"name":"Mesh.017",
			"primitives":[
				{
					"attributes":{
						"POSITION":12,
						"NORMAL":13,
						"TEXCOORD_0":14
					},
					"indices":11,
					"material":0
				}
			]
		}
	],
	"textures":[
		{
			"sampler":0,
			"source":0
		}
	],
	"images":[
		{
			"mimeType":"image/jpeg",
			"name":"cat. B n.349 PINKY_23c_tx.jpg.001",
			"uri":"../ULPHOSTERY/PINKY_FABRIC/cat.%20B%20n.349%20PINKY_23c_tx.jpg"
		}
	],
	"accessors":[
		{
			"bufferView":0,
			"componentType":5126,
			"count":5126,
			"max":[
				16.287769317626953,
				8.073590278625488,
				16.470998764038086
			],
			"min":[
				-16.287769317626953,
				-8.073590278625488,
				-16.470991134643555
			],
			"type":"VEC3"
		},
		{
			"bufferView":1,
			"componentType":5126,
			"count":5126,
			"type":"VEC3"
		},
		{
			"bufferView":2,
			"componentType":5126,
			"count":5126,
			"type":"VEC2"
		},
		{
			"bufferView":3,
			"componentType":5123,
			"count":28800,
			"type":"SCALAR"
		},
		{
			"bufferView":4,
			"componentType":5126,
			"count":7535,
			"max":[
				14.929896354675293,
				0.7889865636825562,
				17.02925682067871
			],
			"min":[
				-17.626502990722656,
				-0.7858167886734009,
				-14.721811294555664
			],
			"type":"VEC3"
		},
		{
			"bufferView":5,
			"componentType":5126,
			"count":7535,
			"type":"VEC3"
		},
		{
			"bufferView":6,
			"componentType":5126,
			"count":7535,
			"type":"VEC2"
		},
		{
			"bufferView":7,
			"componentType":5123,
			"count":42240,
			"type":"SCALAR"
		},
		{
			"bufferView":8,
			"componentType":5126,
			"count":7145,
			"max":[
				15.636775016784668,
				19.42178726196289,
				7.904481887817383
			],
			"min":[
				-15.636775016784668,
				-19.42178726196289,
				-7.904476165771484
			],
			"type":"VEC3"
		},
		{
			"bufferView":9,
			"componentType":5126,
			"count":7145,
			"type":"VEC3"
		},
		{
			"bufferView":10,
			"componentType":5126,
			"count":7145,
			"type":"VEC2"
		},
		{
			"bufferView":11,
			"componentType":5123,
			"count":40380,
			"type":"SCALAR"
		},
		{
			"bufferView":12,
			"componentType":5126,
			"count":7145,
			"max":[
				16.10453224182129,
				19.421789169311523,
				7.90447998046875
			],
			"min":[
				-16.10453987121582,
				-19.421789169311523,
				-7.90447998046875
			],
			"type":"VEC3"
		},
		{
			"bufferView":13,
			"componentType":5126,
			"count":7145,
			"type":"VEC3"
		},
		{
			"bufferView":14,
			"componentType":5126,
			"count":7145,
			"type":"VEC2"
		}
	],
	"bufferViews":[
		{
			"buffer":0,
			"byteLength":61512,
			"byteOffset":0,
			"target":34962
		},
		{
			"buffer":0,
			"byteLength":61512,
			"byteOffset":61512,
			"target":34962
		},
		{
			"buffer":0,
			"byteLength":41008,
			"byteOffset":123024,
			"target":34962
		},
		{
			"buffer":0,
			"byteLength":57600,
			"byteOffset":164032,
			"target":34963
		},
		{
			"buffer":0,
			"byteLength":90420,
			"byteOffset":221632,
			"target":34962
		},
		{
			"buffer":0,
			"byteLength":90420,
			"byteOffset":312052,
			"target":34962
		},
		{
			"buffer":0,
			"byteLength":60280,
			"byteOffset":402472,
			"target":34962
		},
		{
			"buffer":0,
			"byteLength":84480,
			"byteOffset":462752,
			"target":34963
		},
		{
			"buffer":0,
			"byteLength":85740,
			"byteOffset":547232,
			"target":34962
		},
		{
			"buffer":0,
			"byteLength":85740,
			"byteOffset":632972,
			"target":34962
		},
		{
			"buffer":0,
			"byteLength":57160,
			"byteOffset":718712,
			"target":34962
		},
		{
			"buffer":0,
			"byteLength":80760,
			"byteOffset":775872,
			"target":34963
		},
		{
			"buffer":0,
			"byteLength":85740,
			"byteOffset":856632,
			"target":34962
		},
		{
			"buffer":0,
			"byteLength":85740,
			"byteOffset":942372,
			"target":34962
		},
		{
			"buffer":0,
			"byteLength":57160,
			"byteOffset":1028112,
			"target":34962
		}
	],
	"samplers":[
		{
			"magFilter":9729,
			"minFilter":9987
		}
	],
	"buffers":[
		{
			"byteLength":1085272,
			"uri":"Jump_Angle.bin"
		}
	]
}
