{
	"asset":{
		"generator":"Khronos glTF Blender I/O v5.0.21",
		"version":"2.0"
	},
	"extensionsUsed":[
		"KHR_materials_specular",
		"KHR_materials_sheen"
	],
	"scene":0,
	"scenes":[
		{
			"name":"Scene",
			"nodes":[
				0,
				1,
				2
			]
		}
	],
	"nodes":[
		{
			"mesh":0,
			"name":"Jump_SeatPouf_seat._opposite",
			"rotation":[
				0,
				1,
				0,
				6.123234262925839e-17
			],
			"scale":[
				0.02539999969303608,
				0.02539999969303608,
				0.02539999969303608
			],
			"translation":[
				-0.2639312744140625,
				0.24327000975608826,
				0.2605464458465576
			]
		},
		{
			"mesh":1,
			"name":"Jump_SeatPouf_feet_opposite",
			"rotation":[
				1,
				0,
				0,
				1.1102230246251565e-16
			],
			"scale":[
				-0.02539999969303608,
				-0.02539999969303608,
				-0.02539999969303608
			],
			"translation":[
				0.24916839599609375,
				0.01222914457321167,
				-0.12861156463623047
			]
		},
		{
			"mesh":2,
			"name":"Jump_SeatPouf_back_opposite",
			"rotation":[
				1,
				0,
				0,
				1.1102230246251565e-16
			],
			"scale":[
				-0.02580838091671467,
				-0.02539999969303608,
				-0.02539999969303608
			],
			"translation":[
				-0.05121612548828125,
				0.533636212348938,
				-0.04341012239456177
			]
		}
	],
	"materials":[
		{
			"doubleSided":true,
			"extensions":{
				"KHR_materials_specular":{
					"specularColorFactor":[
						0.0,
						0.0,
						0.0
					]
				},
				"KHR_materials_sheen":{
					"sheenColorFactor":[
						1.0,
						1.0,
						1.0
					],
					"sheenRoughnessFactor":0.4475138187408447
				}
			},
			"name":"01 - Default",
			"pbrMetallicRoughness":{
				"baseColorTexture":{
					"index":0
				},
				"metallicFactor":0
			}
		},
		{
			"doubleSided":true,
			"extensions":{
				"KHR_materials_specular":{
					"specularColorFactor":[
						0.0,
						0.0,
						0.0
					]
				}
			},
			"name":"Plastic",
			"pbrMetallicRoughness":{
				"baseColorFactor":[
					0.013522119261324406,
					0.013522119261324406,
					0.013522119261324406,
					1
				],
				"metallicFactor":0,
				"roughnessFactor":0.8784530162811279
			}
		}
	],
	"meshes":[
		{
			"name":"Mesh.007",
			"primitives":[
				{
					"attributes":{
						"POSITION":0,
						"NORMAL":1,
						"TEXCOORD_0":2
					},
					"indices":3,
					"material":0
				}
			]
		},
		{
			"name":"Mesh.008",
			"primitives":[
				{
					"attributes":{
						"POSITION":4,
						"NORMAL":5,
						"TEXCOORD_0":6
					},
					"indices":7,
					"material":1
				}
			]
		},
		{
			"name":"Mesh.016",
			"primitives":[
				{
					"attributes":{
						"POSITION":8,
						"NORMAL":9,
						"TEXCOORD_0":10
					},
					"indices":11,
					"material":0
				}
			]
		}
	],
	"textures":[
		{
			"sampler":0,
			"source":0
		}
	],
	"images":[
		{
			"mimeType":"image/jpeg",
			"name":"cat. B n.349 PINKY_23c_tx.jpg.001",
			"uri":"../ULPHOSTERY/PINKY_FABRIC/cat.%20B%20n.349%20PINKY_23c_tx.jpg"
		}
	],
	"accessors":[
		{
			"bufferView":0,
			"componentType":5126,
			"count":5658,
			"max":[
				24.172725677490234,
				8.126312255859375,
				19.41580581665039
			],
			"min":[
				-24.17270278930664,
				-8.126312255859375,
				-19.41580581665039
			],
			"type":"VEC3"
		},
		{
			"bufferView":1,
			"componentType":5126,
			"count":5658,
			"type":"VEC3"
		},
		{
			"bufferView":2,
			"componentType":5126,
			"count":5658,
			"type":"VEC2"
		},
		{
			"bufferView":3,
			"componentType":5123,
			"count":32232,
			"type":"SCALAR"
		},
		{
			"bufferView":4,
			"componentType":5126,
			"count":7535,
			"max":[
				40.06524658203125,
				1.5748034715652466,
				30.743640899658203
			],
			"min":[
				-1.0888289213180542,
				-3.9451546030022655e-08,
				-1.0888289213180542
			],
			"type":"VEC3"
		},
		{
			"bufferView":5,
			"componentType":5126,
			"count":7535,
			"type":"VEC3"
		},
		{
			"bufferView":6,
			"componentType":5126,
			"count":7535,
			"type":"VEC2"
		},
		{
			"bufferView":7,
			"componentType":5123,
			"count":42240,
			"type":"SCALAR"
		},
		{
			"bufferView":8,
			"componentType":5126,
			"count":7145,
			"max":[
				15.461264610290527,
				19.421789169311523,
				7.90447998046875
			],
			"min":[
				-15.461268424987793,
				-19.421789169311523,
				-7.90447998046875
			],
			"type":"VEC3"
		},
		{
			"bufferView":9,
			"componentType":5126,
			"count":7145,
			"type":"VEC3"
		},
		{
			"bufferView":10,
			"componentType":5126,
			"count":7145,
			"type":"VEC2"
		},
		{
			"bufferView":11,
			"componentType":5123,
			"count":40380,
			"type":"SCALAR"
		}
	],
	"bufferViews":[
		{
			"buffer":0,
			"byteLength":67896,
			"byteOffset":0,
			"target":34962
		},
		{
			"buffer":0,
			"byteLength":67896,
			"byteOffset":67896,
			"target":34962
		},
		{
			"buffer":0,
			"byteLength":45264,
			"byteOffset":135792,
			"target":34962
		},
		{
			"buffer":0,
			"byteLength":64464,
			"byteOffset":181056,
			"target":34963
		},
		{
			"buffer":0,
			"byteLength":90420,
			"byteOffset":245520,
			"target":34962
		},
		{
			"buffer":0,
			"byteLength":90420,
			"byteOffset":335940,
			"target":34962
		},
		{
			"buffer":0,
			"byteLength":60280,
			"byteOffset":426360,
			"target":34962
		},
		{
			"buffer":0,
			"byteLength":84480,
			"byteOffset":486640,
			"target":34963
		},
		{
			"buffer":0,
			"byteLength":85740,
			"byteOffset":571120,
			"target":34962
		},
		{
			"buffer":0,
			"byteLength":85740,
			"byteOffset":656860,
			"target":34962
		},
		{
			"buffer":0,
			"byteLength":57160,
			"byteOffset":742600,
			"target":34962
		},
		{
			"buffer":0,
			"byteLength":80760,
			"byteOffset":799760,
			"target":34963
		}
	],
	"samplers":[
		{
			"magFilter":9729,
			"minFilter":9987
		}
	],
	"buffers":[
		{
			"byteLength":880520,
			"uri":"jump_SeatPouf_opposite.bin"
		}
	]
}
