{
	"asset":{
		"generator":"Khronos glTF Blender I/O v5.0.21",
		"version":"2.0"
	},
	"extensionsUsed":[
		"KHR_materials_specular",
		"KHR_materials_sheen"
	],
	"scene":0,
	"scenes":[
		{
			"name":"Scene",
			"nodes":[
				0,
				1,
				2,
				3
			]
		}
	],
	"nodes":[
		{
			"mesh":0,
			"name":"Jump_Right_feet",
			"scale":[
				0.02539999969303608,
				0.02539999969303608,
				0.02539999969303608
			],
			"translation":[
				-0.10255956649780273,
				0.020398125052452087,
				0.057666778564453125
			]
		},
		{
			"mesh":1,
			"name":"Jump_Right_seat",
			"scale":[
				0.02539999969303608,
				0.02539999969303608,
				0.02539999969303608
			],
			"translation":[
				-0.12952375411987305,
				0.22934962809085846,
				0.16076421737670898
			]
		},
		{
			"mesh":2,
			"name":"Jump_Right_armrest",
			"rotation":[
				0,
				0,
				1,
				4.371138828673793e-08
			],
			"scale":[
				-0.02539999969303608,
				-0.02539999969303608,
				-0.02539999969303608
			],
			"translation":[
				0.3381381034851074,
				0.34182819724082947,
				0.05434417724609375
			]
		},
		{
			"mesh":3,
			"name":"Jump_Right_back",
			"scale":[
				0.02580838091671467,
				0.02539999969303608,
				0.02539999969303608
			],
			"translation":[
				-0.12047052383422852,
				0.5218454599380493,
				-0.23270368576049805
			]
		}
	],
	"materials":[
		{
			"doubleSided":true,
			"extensions":{
				"KHR_materials_specular":{
					"specularColorFactor":[
						0.0,
						0.0,
						0.0
					]
				}
			},
			"name":"Plastic",
			"pbrMetallicRoughness":{
				"baseColorFactor":[
					0.013522119261324406,
					0.013522119261324406,
					0.013522119261324406,
					1
				],
				"metallicFactor":0,
				"roughnessFactor":0.8784530162811279
			}
		},
		{
			"doubleSided":true,
			"extensions":{
				"KHR_materials_specular":{
					"specularColorFactor":[
						0.0,
						0.0,
						0.0
					]
				},
				"KHR_materials_sheen":{
					"sheenColorFactor":[
						1.0,
						1.0,
						1.0
					],
					"sheenRoughnessFactor":0.4475138187408447
				}
			},
			"name":"01 - Default",
			"pbrMetallicRoughness":{
				"baseColorTexture":{
					"index":0
				},
				"metallicFactor":0
			}
		}
	],
	"meshes":[
		{
			"name":"Mesh.058",
			"primitives":[
				{
					"attributes":{
						"POSITION":0,
						"NORMAL":1,
						"TEXCOORD_0":2
					},
					"indices":3,
					"material":0
				}
			]
		},
		{
			"name":"Mesh.054",
			"primitives":[
				{
					"attributes":{
						"POSITION":4,
						"NORMAL":5,
						"TEXCOORD_0":6
					},
					"indices":7,
					"material":1
				}
			]
		},
		{
			"name":"Mesh.055",
			"primitives":[
				{
					"attributes":{
						"POSITION":8,
						"NORMAL":9,
						"TEXCOORD_0":10
					},
					"indices":11,
					"material":1
				}
			]
		},
		{
			"name":"Mesh.060",
			"primitives":[
				{
					"attributes":{
						"POSITION":12,
						"NORMAL":13,
						"TEXCOORD_0":14
					},
					"indices":15,
					"material":1
				}
			]
		}
	],
	"textures":[
		{
			"sampler":0,
			"source":0
		}
	],
	"images":[
		{
			"mimeType":"image/jpeg",
			"name":"cat. B n.349 PINKY_23c_tx.jpg.001",
			"uri":"../ULPHOSTERY/PINKY_FABRIC/cat.%20B%20n.349%20PINKY_23c_tx.jpg"
		}
	],
	"accessors":[
		{
			"bufferView":0,
			"componentType":5126,
			"count":6028,
			"max":[
				12.062074661254883,
				0.788987398147583,
				15.875920295715332
			],
			"min":[
				-12.07293701171875,
				-0.785815954208374,
				-15.875147819519043
			],
			"type":"VEC3"
		},
		{
			"bufferView":1,
			"componentType":5126,
			"count":6028,
			"type":"VEC3"
		},
		{
			"bufferView":2,
			"componentType":5126,
			"count":6028,
			"type":"VEC2"
		},
		{
			"bufferView":3,
			"componentType":5123,
			"count":33792,
			"type":"SCALAR"
		},
		{
			"bufferView":4,
			"componentType":5126,
			"count":5264,
			"max":[
				15.559467315673828,
				8.060105323791504,
				16.138439178466797
			],
			"min":[
				-15.559467315673828,
				-8.06010627746582,
				-16.138439178466797
			],
			"type":"VEC3"
		},
		{
			"bufferView":5,
			"componentType":5126,
			"count":5264,
			"type":"VEC3"
		},
		{
			"bufferView":6,
			"componentType":5126,
			"count":5264,
			"type":"VEC2"
		},
		{
			"bufferView":7,
			"componentType":5123,
			"count":29952,
			"type":"SCALAR"
		},
		{
			"bufferView":8,
			"componentType":5126,
			"count":26337,
			"max":[
				6.131443023681641,
				14.328317642211914,
				17.81578254699707
			],
			"min":[
				-5.1252899169921875,
				-12.724847793579102,
				-19.062841415405273
			],
			"type":"VEC3"
		},
		{
			"bufferView":9,
			"componentType":5126,
			"count":26337,
			"type":"VEC3"
		},
		{
			"bufferView":10,
			"componentType":5126,
			"count":26337,
			"type":"VEC2"
		},
		{
			"bufferView":11,
			"componentType":5123,
			"count":153312,
			"type":"SCALAR"
		},
		{
			"bufferView":12,
			"componentType":5126,
			"count":7145,
			"max":[
				15.46126651763916,
				19.421789169311523,
				7.90447998046875
			],
			"min":[
				-15.46126651763916,
				-19.421789169311523,
				-7.90447998046875
			],
			"type":"VEC3"
		},
		{
			"bufferView":13,
			"componentType":5126,
			"count":7145,
			"type":"VEC3"
		},
		{
			"bufferView":14,
			"componentType":5126,
			"count":7145,
			"type":"VEC2"
		},
		{
			"bufferView":15,
			"componentType":5123,
			"count":40380,
			"type":"SCALAR"
		}
	],
	"bufferViews":[
		{
			"buffer":0,
			"byteLength":72336,
			"byteOffset":0,
			"target":34962
		},
		{
			"buffer":0,
			"byteLength":72336,
			"byteOffset":72336,
			"target":34962
		},
		{
			"buffer":0,
			"byteLength":48224,
			"byteOffset":144672,
			"target":34962
		},
		{
			"buffer":0,
			"byteLength":67584,
			"byteOffset":192896,
			"target":34963
		},
		{
			"buffer":0,
			"byteLength":63168,
			"byteOffset":260480,
			"target":34962
		},
		{
			"buffer":0,
			"byteLength":63168,
			"byteOffset":323648,
			"target":34962
		},
		{
			"buffer":0,
			"byteLength":42112,
			"byteOffset":386816,
			"target":34962
		},
		{
			"buffer":0,
			"byteLength":59904,
			"byteOffset":428928,
			"target":34963
		},
		{
			"buffer":0,
			"byteLength":316044,
			"byteOffset":488832,
			"target":34962
		},
		{
			"buffer":0,
			"byteLength":316044,
			"byteOffset":804876,
			"target":34962
		},
		{
			"buffer":0,
			"byteLength":210696,
			"byteOffset":1120920,
			"target":34962
		},
		{
			"buffer":0,
			"byteLength":306624,
			"byteOffset":1331616,
			"target":34963
		},
		{
			"buffer":0,
			"byteLength":85740,
			"byteOffset":1638240,
			"target":34962
		},
		{
			"buffer":0,
			"byteLength":85740,
			"byteOffset":1723980,
			"target":34962
		},
		{
			"buffer":0,
			"byteLength":57160,
			"byteOffset":1809720,
			"target":34962
		},
		{
			"buffer":0,
			"byteLength":80760,
			"byteOffset":1866880,
			"target":34963
		}
	],
	"samplers":[
		{
			"magFilter":9729,
			"minFilter":9987
		}
	],
	"buffers":[
		{
			"byteLength":1947640,
			"uri":"Jump_Right.bin"
		}
	]
}
