{
	"asset":{
		"generator":"Khronos glTF Blender I/O v5.0.21",
		"version":"2.0"
	},
	"extensionsUsed":[
		"KHR_materials_specular",
		"KHR_materials_sheen"
	],
	"scene":0,
	"scenes":[
		{
			"name":"Scene",
			"nodes":[
				0,
				1,
				2,
				3
			]
		}
	],
	"nodes":[
		{
			"mesh":0,
			"name":"Jump_BigAngle_back1",
			"rotation":[
				0,
				-0.3826834261417389,
				0,
				0.9238795638084412
			],
			"scale":[
				0.02580837719142437,
				0.02539999969303608,
				0.02540000155568123
			],
			"translation":[
				0.3859262466430664,
				0.5218454599380493,
				0.08011627197265625
			]
		},
		{
			"mesh":1,
			"name":"Jump_BigAngle_feet",
			"rotation":[
				0,
				0.3826834261417389,
				0,
				0.9238795638084412
			],
			"scale":[
				0.02540000155568123,
				0.02539999969303608,
				0.02540000155568123
			],
			"translation":[
				-0.020974159240722656,
				0.020398199558258057,
				0.09182071685791016
			]
		},
		{
			"mesh":2,
			"name":"Jump_BigAngle_back2",
			"scale":[
				0.02580838091671467,
				0.02539999969303608,
				0.02539999969303608
			],
			"translation":[
				-0.2956275939941406,
				0.5218454599380493,
				-0.22136783599853516
			]
		},
		{
			"mesh":3,
			"name":"Jump_bigAngle_seat",
			"scale":[
				0.02580838091671467,
				0.02539999969303608,
				0.02539999969303608
			],
			"translation":[
				-0.09650325775146484,
				0.1986837238073349,
				0.27467870712280273
			]
		}
	],
	"materials":[
		{
			"doubleSided":true,
			"extensions":{
				"KHR_materials_specular":{
					"specularColorFactor":[
						0.0,
						0.0,
						0.0
					]
				},
				"KHR_materials_sheen":{
					"sheenColorFactor":[
						1.0,
						1.0,
						1.0
					],
					"sheenRoughnessFactor":0.4475138187408447
				}
			},
			"name":"01 - Default",
			"pbrMetallicRoughness":{
				"baseColorTexture":{
					"index":0
				},
				"metallicFactor":0
			}
		},
		{
			"doubleSided":true,
			"extensions":{
				"KHR_materials_specular":{
					"specularColorFactor":[
						0.0,
						0.0,
						0.0
					]
				}
			},
			"name":"Plastic",
			"pbrMetallicRoughness":{
				"baseColorFactor":[
					0.013522119261324406,
					0.013522119261324406,
					0.013522119261324406,
					1
				],
				"metallicFactor":0,
				"roughnessFactor":0.8784530162811279
			}
		}
	],
	"meshes":[
		{
			"name":"Mesh.023",
			"primitives":[
				{
					"attributes":{
						"POSITION":0,
						"NORMAL":1,
						"TEXCOORD_0":2
					},
					"indices":3,
					"material":0
				}
			]
		},
		{
			"name":"Mesh.029",
			"primitives":[
				{
					"attributes":{
						"POSITION":4,
						"NORMAL":5,
						"TEXCOORD_0":6
					},
					"indices":7,
					"material":1
				}
			]
		},
		{
			"name":"Mesh.022",
			"primitives":[
				{
					"attributes":{
						"POSITION":8,
						"NORMAL":9,
						"TEXCOORD_0":10
					},
					"indices":3,
					"material":0
				}
			]
		},
		{
			"name":"Mesh.021",
			"primitives":[
				{
					"attributes":{
						"POSITION":11,
						"NORMAL":12,
						"TEXCOORD_0":13
					},
					"indices":14,
					"material":0
				}
			]
		}
	],
	"textures":[
		{
			"sampler":0,
			"source":0
		}
	],
	"images":[
		{
			"mimeType":"image/jpeg",
			"name":"cat. B n.349 PINKY_23c_tx.jpg.001",
			"uri":"../ULPHOSTERY/PINKY_FABRIC/cat.%20B%20n.349%20PINKY_23c_tx.jpg"
		}
	],
	"accessors":[
		{
			"bufferView":0,
			"componentType":5126,
			"count":7145,
			"max":[
				15.461267471313477,
				19.421789169311523,
				7.904479026794434
			],
			"min":[
				-15.461265563964844,
				-19.421789169311523,
				-7.904480934143066
			],
			"type":"VEC3"
		},
		{
			"bufferView":1,
			"componentType":5126,
			"count":7145,
			"type":"VEC3"
		},
		{
			"bufferView":2,
			"componentType":5126,
			"count":7145,
			"type":"VEC2"
		},
		{
			"bufferView":3,
			"componentType":5123,
			"count":40380,
			"type":"SCALAR"
		},
		{
			"bufferView":4,
			"componentType":5126,
			"count":9042,
			"max":[
				16.46537971496582,
				0.7889842987060547,
				22.746158599853516
			],
			"min":[
				-25.66954803466797,
				-0.7858188152313232,
				-27.52496910095215
			],
			"type":"VEC3"
		},
		{
			"bufferView":5,
			"componentType":5126,
			"count":9042,
			"type":"VEC3"
		},
		{
			"bufferView":6,
			"componentType":5126,
			"count":9042,
			"type":"VEC2"
		},
		{
			"bufferView":7,
			"componentType":5123,
			"count":50688,
			"type":"SCALAR"
		},
		{
			"bufferView":8,
			"componentType":5126,
			"count":7145,
			"max":[
				15.461276054382324,
				19.421789169311523,
				7.90447998046875
			],
			"min":[
				-15.461256980895996,
				-19.421789169311523,
				-7.90447998046875
			],
			"type":"VEC3"
		},
		{
			"bufferView":9,
			"componentType":5126,
			"count":7145,
			"type":"VEC3"
		},
		{
			"bufferView":10,
			"componentType":5126,
			"count":7145,
			"type":"VEC2"
		},
		{
			"bufferView":11,
			"componentType":5126,
			"count":6150,
			"max":[
				29.6890926361084,
				9.276691436767578,
				24.32228660583496
			],
			"min":[
				-23.258821487426758,
				-6.835148811340332,
				-20.13493537902832
			],
			"type":"VEC3"
		},
		{
			"bufferView":12,
			"componentType":5126,
			"count":6150,
			"type":"VEC3"
		},
		{
			"bufferView":13,
			"componentType":5126,
			"count":6150,
			"type":"VEC2"
		},
		{
			"bufferView":14,
			"componentType":5123,
			"count":34560,
			"type":"SCALAR"
		}
	],
	"bufferViews":[
		{
			"buffer":0,
			"byteLength":85740,
			"byteOffset":0,
			"target":34962
		},
		{
			"buffer":0,
			"byteLength":85740,
			"byteOffset":85740,
			"target":34962
		},
		{
			"buffer":0,
			"byteLength":57160,
			"byteOffset":171480,
			"target":34962
		},
		{
			"buffer":0,
			"byteLength":80760,
			"byteOffset":228640,
			"target":34963
		},
		{
			"buffer":0,
			"byteLength":108504,
			"byteOffset":309400,
			"target":34962
		},
		{
			"buffer":0,
			"byteLength":108504,
			"byteOffset":417904,
			"target":34962
		},
		{
			"buffer":0,
			"byteLength":72336,
			"byteOffset":526408,
			"target":34962
		},
		{
			"buffer":0,
			"byteLength":101376,
			"byteOffset":598744,
			"target":34963
		},
		{
			"buffer":0,
			"byteLength":85740,
			"byteOffset":700120,
			"target":34962
		},
		{
			"buffer":0,
			"byteLength":85740,
			"byteOffset":785860,
			"target":34962
		},
		{
			"buffer":0,
			"byteLength":57160,
			"byteOffset":871600,
			"target":34962
		},
		{
			"buffer":0,
			"byteLength":73800,
			"byteOffset":928760,
			"target":34962
		},
		{
			"buffer":0,
			"byteLength":73800,
			"byteOffset":1002560,
			"target":34962
		},
		{
			"buffer":0,
			"byteLength":49200,
			"byteOffset":1076360,
			"target":34962
		},
		{
			"buffer":0,
			"byteLength":69120,
			"byteOffset":1125560,
			"target":34963
		}
	],
	"samplers":[
		{
			"magFilter":9729,
			"minFilter":9987
		}
	],
	"buffers":[
		{
			"byteLength":1194680,
			"uri":"Jump_BigAngle.bin"
		}
	]
}
