{
	"asset":{
		"generator":"Khronos glTF Blender I/O v5.0.21",
		"version":"2.0"
	},
	"extensionsUsed":[
		"KHR_materials_specular",
		"KHR_materials_sheen"
	],
	"scene":0,
	"scenes":[
		{
			"name":"Scene",
			"nodes":[
				0,
				1,
				2,
				3,
				4
			]
		}
	],
	"nodes":[
		{
			"mesh":0,
			"name":"Jump_BigSeat_back2",
			"scale":[
				0.02580838091671467,
				0.02539999969303608,
				0.02539999969303608
			],
			"translation":[
				0.002347998321056366,
				0.5218454003334045,
				-0.42899465560913086
			]
		},
		{
			"mesh":1,
			"name":"Jump_BigSeat_back1",
			"rotation":[
				0.9238795638084412,
				0,
				0.3826833963394165,
				2.90021034743404e-07
			],
			"scale":[
				-0.025808382779359818,
				-0.02539999969303608,
				-0.02539999783039093
			],
			"translation":[
				0.6672630906105042,
				0.5218454003334045,
				-0.15705394744873047
			]
		},
		{
			"mesh":2,
			"name":"Jump_BigSeat_feet",
			"rotation":[
				0,
				0.3826834261417389,
				0,
				0.9238795638084412
			],
			"scale":[
				0.02540000155568123,
				0.02539999969303608,
				0.02540000155568123
			],
			"translation":[
				0.00020986050367355347,
				0.020398203283548355,
				-0.10223817825317383
			]
		},
		{
			"mesh":3,
			"name":"Jump_BigSeat_back3",
			"rotation":[
				0,
				0.3826833963394165,
				0,
				0.9238795638084412
			],
			"scale":[
				0.025808382779359818,
				0.02539999969303608,
				0.02539999783039093
			],
			"translation":[
				-0.6660975813865662,
				0.5218454003334045,
				-0.15939855575561523
			]
		},
		{
			"mesh":4,
			"name":"Jump_BigSeat_seat",
			"rotation":[
				0.9238795638084412,
				0,
				0.3826833963394165,
				2.90021034743404e-07
			],
			"scale":[
				-0.025808382779359818,
				-0.02539999969303608,
				-0.02539999783039093
			],
			"translation":[
				-0.005369134247303009,
				0.2000012993812561,
				0.13846063613891602
			]
		}
	],
	"materials":[
		{
			"doubleSided":true,
			"extensions":{
				"KHR_materials_specular":{
					"specularColorFactor":[
						0.0,
						0.0,
						0.0
					]
				},
				"KHR_materials_sheen":{
					"sheenColorFactor":[
						1.0,
						1.0,
						1.0
					],
					"sheenRoughnessFactor":0.4475138187408447
				}
			},
			"name":"01 - Default",
			"pbrMetallicRoughness":{
				"baseColorTexture":{
					"index":0
				},
				"metallicFactor":0
			}
		},
		{
			"doubleSided":true,
			"extensions":{
				"KHR_materials_specular":{
					"specularColorFactor":[
						0.0,
						0.0,
						0.0
					]
				}
			},
			"name":"Plastic",
			"pbrMetallicRoughness":{
				"baseColorFactor":[
					0.013522119261324406,
					0.013522119261324406,
					0.013522119261324406,
					1
				],
				"metallicFactor":0,
				"roughnessFactor":0.8784530162811279
			}
		}
	],
	"meshes":[
		{
			"name":"Mesh.033",
			"primitives":[
				{
					"attributes":{
						"POSITION":0,
						"NORMAL":1,
						"TEXCOORD_0":2
					},
					"indices":3,
					"material":0
				}
			]
		},
		{
			"name":"Mesh.031",
			"primitives":[
				{
					"attributes":{
						"POSITION":4,
						"NORMAL":5,
						"TEXCOORD_0":6
					},
					"indices":3,
					"material":0
				}
			]
		},
		{
			"name":"Mesh.034",
			"primitives":[
				{
					"attributes":{
						"POSITION":7,
						"NORMAL":8,
						"TEXCOORD_0":9
					},
					"indices":10,
					"material":1
				}
			]
		},
		{
			"name":"Mesh.032",
			"primitives":[
				{
					"attributes":{
						"POSITION":11,
						"NORMAL":12,
						"TEXCOORD_0":13
					},
					"indices":3,
					"material":0
				}
			]
		},
		{
			"name":"Mesh.030",
			"primitives":[
				{
					"attributes":{
						"POSITION":14,
						"NORMAL":15,
						"TEXCOORD_0":16
					},
					"indices":17,
					"material":0
				}
			]
		}
	],
	"textures":[
		{
			"sampler":0,
			"source":0
		}
	],
	"images":[
		{
			"mimeType":"image/jpeg",
			"name":"cat. B n.349 PINKY_23c_tx.jpg.001",
			"uri":"../ULPHOSTERY/PINKY_FABRIC/cat.%20B%20n.349%20PINKY_23c_tx.jpg"
		}
	],
	"accessors":[
		{
			"bufferView":0,
			"componentType":5126,
			"count":7145,
			"max":[
				15.461276054382324,
				19.421789169311523,
				7.904480934143066
			],
			"min":[
				-15.461256980895996,
				-19.421789169311523,
				-7.904479026794434
			],
			"type":"VEC3"
		},
		{
			"bufferView":1,
			"componentType":5126,
			"count":7145,
			"type":"VEC3"
		},
		{
			"bufferView":2,
			"componentType":5126,
			"count":7145,
			"type":"VEC2"
		},
		{
			"bufferView":3,
			"componentType":5123,
			"count":40380,
			"type":"SCALAR"
		},
		{
			"bufferView":4,
			"componentType":5126,
			"count":7145,
			"max":[
				15.461260795593262,
				19.421789169311523,
				7.904473304748535
			],
			"min":[
				-15.461272239685059,
				-19.421789169311523,
				-7.904486656188965
			],
			"type":"VEC3"
		},
		{
			"bufferView":5,
			"componentType":5126,
			"count":7145,
			"type":"VEC3"
		},
		{
			"bufferView":6,
			"componentType":5126,
			"count":7145,
			"type":"VEC2"
		},
		{
			"bufferView":7,
			"componentType":5126,
			"count":12056,
			"max":[
				25.088825225830078,
				0.7889841794967651,
				28.967113494873047
			],
			"min":[
				-28.832149505615234,
				-0.7858191132545471,
				-24.928295135498047
			],
			"type":"VEC3"
		},
		{
			"bufferView":8,
			"componentType":5126,
			"count":12056,
			"type":"VEC3"
		},
		{
			"bufferView":9,
			"componentType":5126,
			"count":12056,
			"type":"VEC2"
		},
		{
			"bufferView":10,
			"componentType":5123,
			"count":67584,
			"type":"SCALAR"
		},
		{
			"bufferView":11,
			"componentType":5126,
			"count":7145,
			"max":[
				15.461281776428223,
				19.421789169311523,
				7.9044952392578125
			],
			"min":[
				-15.461251258850098,
				-19.421789169311523,
				-7.9044647216796875
			],
			"type":"VEC3"
		},
		{
			"bufferView":12,
			"componentType":5126,
			"count":7145,
			"type":"VEC3"
		},
		{
			"bufferView":13,
			"componentType":5126,
			"count":7145,
			"type":"VEC2"
		},
		{
			"bufferView":14,
			"componentType":5126,
			"count":7620,
			"max":[
				26.93537712097168,
				9.227103233337402,
				26.434303283691406
			],
			"min":[
				-26.013723373413086,
				-6.88702392578125,
				-27.365886688232422
			],
			"type":"VEC3"
		},
		{
			"bufferView":15,
			"componentType":5126,
			"count":7620,
			"type":"VEC3"
		},
		{
			"bufferView":16,
			"componentType":5126,
			"count":7620,
			"type":"VEC2"
		},
		{
			"bufferView":17,
			"componentType":5123,
			"count":43776,
			"type":"SCALAR"
		}
	],
	"bufferViews":[
		{
			"buffer":0,
			"byteLength":85740,
			"byteOffset":0,
			"target":34962
		},
		{
			"buffer":0,
			"byteLength":85740,
			"byteOffset":85740,
			"target":34962
		},
		{
			"buffer":0,
			"byteLength":57160,
			"byteOffset":171480,
			"target":34962
		},
		{
			"buffer":0,
			"byteLength":80760,
			"byteOffset":228640,
			"target":34963
		},
		{
			"buffer":0,
			"byteLength":85740,
			"byteOffset":309400,
			"target":34962
		},
		{
			"buffer":0,
			"byteLength":85740,
			"byteOffset":395140,
			"target":34962
		},
		{
			"buffer":0,
			"byteLength":57160,
			"byteOffset":480880,
			"target":34962
		},
		{
			"buffer":0,
			"byteLength":144672,
			"byteOffset":538040,
			"target":34962
		},
		{
			"buffer":0,
			"byteLength":144672,
			"byteOffset":682712,
			"target":34962
		},
		{
			"buffer":0,
			"byteLength":96448,
			"byteOffset":827384,
			"target":34962
		},
		{
			"buffer":0,
			"byteLength":135168,
			"byteOffset":923832,
			"target":34963
		},
		{
			"buffer":0,
			"byteLength":85740,
			"byteOffset":1059000,
			"target":34962
		},
		{
			"buffer":0,
			"byteLength":85740,
			"byteOffset":1144740,
			"target":34962
		},
		{
			"buffer":0,
			"byteLength":57160,
			"byteOffset":1230480,
			"target":34962
		},
		{
			"buffer":0,
			"byteLength":91440,
			"byteOffset":1287640,
			"target":34962
		},
		{
			"buffer":0,
			"byteLength":91440,
			"byteOffset":1379080,
			"target":34962
		},
		{
			"buffer":0,
			"byteLength":60960,
			"byteOffset":1470520,
			"target":34962
		},
		{
			"buffer":0,
			"byteLength":87552,
			"byteOffset":1531480,
			"target":34963
		}
	],
	"samplers":[
		{
			"magFilter":9729,
			"minFilter":9987
		}
	],
	"buffers":[
		{
			"byteLength":1619032,
			"uri":"Jump_BigSeat.bin"
		}
	]
}
