{
	"asset":{
		"generator":"Khronos glTF Blender I/O v5.0.21",
		"version":"2.0"
	},
	"extensionsUsed":[
		"KHR_materials_specular",
		"KHR_materials_sheen"
	],
	"scene":0,
	"scenes":[
		{
			"name":"Scene",
			"nodes":[
				0,
				1,
				2
			]
		}
	],
	"nodes":[
		{
			"mesh":0,
			"name":"Jump_Center_feet",
			"scale":[
				0.02539999969303608,
				0.02539999969303608,
				0.02539999969303608
			],
			"translation":[
				-0.006252765655517578,
				0.020398113876581192,
				0.06900167465209961
			]
		},
		{
			"mesh":1,
			"name":"Jump_Center_back",
			"scale":[
				0.02580838091671467,
				0.02539999969303608,
				0.02539999969303608
			],
			"translation":[
				-0.0037364959716796875,
				0.5218454599380493,
				-0.22136783599853516
			]
		},
		{
			"mesh":2,
			"name":"Jump_Center_seat",
			"scale":[
				0.02580838091671467,
				0.02539999969303608,
				0.02539999969303608
			],
			"translation":[
				-0.007674694061279297,
				0.22918041050434113,
				0.17276668548583984
			]
		}
	],
	"materials":[
		{
			"doubleSided":true,
			"extensions":{
				"KHR_materials_specular":{
					"specularColorFactor":[
						0.0,
						0.0,
						0.0
					]
				}
			},
			"name":"Plastic",
			"pbrMetallicRoughness":{
				"baseColorFactor":[
					0.013522119261324406,
					0.013522119261324406,
					0.013522119261324406,
					1
				],
				"metallicFactor":0,
				"roughnessFactor":0.8784530162811279
			}
		},
		{
			"doubleSided":true,
			"extensions":{
				"KHR_materials_specular":{
					"specularColorFactor":[
						0.0,
						0.0,
						0.0
					]
				},
				"KHR_materials_sheen":{
					"sheenColorFactor":[
						1.0,
						1.0,
						1.0
					],
					"sheenRoughnessFactor":0.4475138187408447
				}
			},
			"name":"01 - Default",
			"pbrMetallicRoughness":{
				"baseColorTexture":{
					"index":0
				},
				"metallicFactor":0
			}
		}
	],
	"meshes":[
		{
			"name":"Mesh.003",
			"primitives":[
				{
					"attributes":{
						"POSITION":0,
						"NORMAL":1,
						"TEXCOORD_0":2
					},
					"indices":3,
					"material":0
				}
			]
		},
		{
			"name":"Mesh.011",
			"primitives":[
				{
					"attributes":{
						"POSITION":4,
						"NORMAL":5,
						"TEXCOORD_0":6
					},
					"indices":7,
					"material":1
				}
			]
		},
		{
			"name":"Mesh.002",
			"primitives":[
				{
					"attributes":{
						"POSITION":8,
						"NORMAL":9,
						"TEXCOORD_0":10
					},
					"indices":11,
					"material":1
				}
			]
		}
	],
	"textures":[
		{
			"sampler":0,
			"source":0
		}
	],
	"images":[
		{
			"mimeType":"image/jpeg",
			"name":"cat. B n.349 PINKY_23c_tx.jpg.001",
			"uri":"../ULPHOSTERY/PINKY_FABRIC/cat.%20B%20n.349%20PINKY_23c_tx.jpg"
		}
	],
	"accessors":[
		{
			"bufferView":0,
			"componentType":5126,
			"count":6028,
			"max":[
				12.3755464553833,
				0.7889878153800964,
				15.875970840454102
			],
			"min":[
				-12.386435508728027,
				-0.7858155369758606,
				-15.875066757202148
			],
			"type":"VEC3"
		},
		{
			"bufferView":1,
			"componentType":5126,
			"count":6028,
			"type":"VEC3"
		},
		{
			"bufferView":2,
			"componentType":5126,
			"count":6028,
			"type":"VEC2"
		},
		{
			"bufferView":3,
			"componentType":5123,
			"count":33792,
			"type":"SCALAR"
		},
		{
			"bufferView":4,
			"componentType":5126,
			"count":7145,
			"max":[
				15.461264610290527,
				19.421789169311523,
				7.90447998046875
			],
			"min":[
				-15.461268424987793,
				-19.421789169311523,
				-7.90447998046875
			],
			"type":"VEC3"
		},
		{
			"bufferView":5,
			"componentType":5126,
			"count":7145,
			"type":"VEC3"
		},
		{
			"bufferView":6,
			"componentType":5126,
			"count":7145,
			"type":"VEC2"
		},
		{
			"bufferView":7,
			"componentType":5123,
			"count":40380,
			"type":"SCALAR"
		},
		{
			"bufferView":8,
			"componentType":5126,
			"count":5268,
			"max":[
				15.724480628967285,
				8.035805702209473,
				16.128646850585938
			],
			"min":[
				-15.724477767944336,
				-8.035805702209473,
				-16.128646850585938
			],
			"type":"VEC3"
		},
		{
			"bufferView":9,
			"componentType":5126,
			"count":5268,
			"type":"VEC3"
		},
		{
			"bufferView":10,
			"componentType":5126,
			"count":5268,
			"type":"VEC2"
		},
		{
			"bufferView":11,
			"componentType":5123,
			"count":29952,
			"type":"SCALAR"
		}
	],
	"bufferViews":[
		{
			"buffer":0,
			"byteLength":72336,
			"byteOffset":0,
			"target":34962
		},
		{
			"buffer":0,
			"byteLength":72336,
			"byteOffset":72336,
			"target":34962
		},
		{
			"buffer":0,
			"byteLength":48224,
			"byteOffset":144672,
			"target":34962
		},
		{
			"buffer":0,
			"byteLength":67584,
			"byteOffset":192896,
			"target":34963
		},
		{
			"buffer":0,
			"byteLength":85740,
			"byteOffset":260480,
			"target":34962
		},
		{
			"buffer":0,
			"byteLength":85740,
			"byteOffset":346220,
			"target":34962
		},
		{
			"buffer":0,
			"byteLength":57160,
			"byteOffset":431960,
			"target":34962
		},
		{
			"buffer":0,
			"byteLength":80760,
			"byteOffset":489120,
			"target":34963
		},
		{
			"buffer":0,
			"byteLength":63216,
			"byteOffset":569880,
			"target":34962
		},
		{
			"buffer":0,
			"byteLength":63216,
			"byteOffset":633096,
			"target":34962
		},
		{
			"buffer":0,
			"byteLength":42144,
			"byteOffset":696312,
			"target":34962
		},
		{
			"buffer":0,
			"byteLength":59904,
			"byteOffset":738456,
			"target":34963
		}
	],
	"samplers":[
		{
			"magFilter":9729,
			"minFilter":9987
		}
	],
	"buffers":[
		{
			"byteLength":798360,
			"uri":"Jump_Center.bin"
		}
	]
}
